<mxfile host="app.diagrams.net" modified="2023-06-16T07:07:36.253Z" agent="Mozilla/5.0 (Windows NT 10.0; Win64; x64; rv:109.0) Gecko/20100101 Firefox/114.0" version="21.4.0" etag="UuU0SwLersMqf8HfTw8V" type="github">
  <diagram name="第 1 页" id="2emBraEreXWmBRCy49E5">
    <mxGraphModel>
      <root>
        <mxCell id="0" />
        <mxCell id="1" parent="0" />
      </root>
    </mxGraphModel>
  </diagram>
</mxfile>
